<svg width="1249" height="266" viewBox="0 0 1249 266" fill="none" xmlns="http://www.w3.org/2000/svg">
<path d="M499.16 156.701C499.16 167.581 497.48 177.421 494.12 186.221C490.76 194.861 485.8 201.981 479.24 207.581C472.68 213.181 464.52 216.541 454.76 217.661C446.76 218.941 439.08 218.381 431.72 215.981C424.36 213.581 418.44 210.461 413.96 206.621V217.901H395V49.9012H413.96V102.941C419.88 99.9012 425.4 98.0612 430.52 97.4212C435.64 96.7812 440.44 96.4612 444.92 96.4612C456.44 96.4612 466.2 99.1012 474.2 104.381C482.36 109.501 488.52 116.621 492.68 125.741C497 134.701 499.16 145.021 499.16 156.701ZM479.96 156.701C479.96 144.221 476.84 134.541 470.6 127.661C464.52 120.621 456.44 116.541 446.36 115.421C436.28 114.301 425.48 116.141 413.96 120.941V190.541C422.12 196.141 430.12 199.421 437.96 200.381C445.8 201.341 452.84 200.221 459.08 197.021C465.48 193.821 470.52 188.861 474.2 182.141C478.04 175.261 479.96 166.781 479.96 156.701Z" fill="white"/>
<path d="M618.652 217.901H599.692V205.421C596.492 210.221 591.932 213.821 586.012 216.221C580.092 218.621 573.612 219.901 566.572 220.061C559.532 220.381 552.652 219.581 545.932 217.661C539.212 215.581 533.532 212.461 528.892 208.301C524.092 204.141 520.332 198.861 517.612 192.461C515.052 186.061 513.772 178.701 513.772 170.381V97.9012H532.972V170.381C532.972 181.421 536.092 189.501 542.332 194.621C548.732 199.741 556.892 202.301 566.812 202.301C571.772 202.301 576.732 201.181 581.692 198.941C586.812 196.701 591.052 193.261 594.412 188.621C597.932 183.821 599.692 177.741 599.692 170.381V97.9012H618.652V217.901Z" fill="white"/>
<path d="M684.734 217.661C675.134 216.541 666.974 213.181 660.254 207.581C653.694 201.981 648.734 194.861 645.374 186.221C642.014 177.421 640.334 167.581 640.334 156.701C640.334 145.021 642.414 134.701 646.574 125.741C650.894 116.621 657.054 109.501 665.054 104.381C673.214 99.1012 683.054 96.4612 694.574 96.4612C699.214 96.4612 704.014 96.7812 708.974 97.4212C714.094 98.0612 719.614 99.9012 725.534 102.941V49.9012H744.494V217.901H725.534V206.621C721.054 210.461 715.134 213.581 707.774 215.981C700.414 218.381 692.734 218.941 684.734 217.661ZM725.534 190.541V120.941C714.014 116.141 703.214 114.301 693.134 115.421C683.214 116.541 675.134 120.621 668.894 127.661C662.654 134.541 659.534 144.221 659.534 156.701C659.534 166.781 661.374 175.261 665.054 182.141C668.894 188.861 674.014 193.821 680.414 197.021C686.814 200.221 693.854 201.341 701.534 200.381C709.374 199.421 717.374 196.141 725.534 190.541Z" fill="white"/>
<path d="M872.274 217.901H853.314V146.381C853.314 135.501 850.274 127.581 844.194 122.621C838.114 117.501 830.114 114.941 820.194 114.941C814.594 114.941 809.314 116.141 804.354 118.541C799.554 120.781 795.634 123.741 792.594 127.421C789.554 131.101 788.034 134.781 788.034 138.461V217.901H769.074V49.9012H788.034V109.661C792.354 104.861 797.794 101.501 804.354 99.5812C810.914 97.6612 817.074 96.7812 822.834 96.9412C838.354 97.5812 850.434 102.141 859.074 110.621C867.874 119.101 872.274 131.021 872.274 146.381V217.901Z" fill="white"/>
<path d="M930.944 219.101C919.744 218.781 910.384 215.661 902.864 209.741C895.344 203.661 891.584 194.861 891.584 183.341C891.584 171.341 895.104 161.981 902.144 155.261C909.184 148.381 918.784 143.981 930.944 142.061C943.104 140.141 956.704 140.541 971.744 143.261V134.621C971.744 129.021 969.984 124.621 966.464 121.421C962.944 118.061 958.384 115.821 952.784 114.701C947.344 113.581 941.584 113.501 935.504 114.461C929.584 115.261 923.984 117.101 918.704 119.981C913.424 122.701 909.344 126.301 906.464 130.781L894.704 118.301C899.664 112.221 905.664 107.501 912.704 104.141C919.904 100.781 927.344 98.6212 935.024 97.6612C942.704 96.7012 950.144 96.9412 957.344 98.3812C964.544 99.8212 970.864 102.461 976.304 106.301C981.584 109.501 985.184 113.661 987.104 118.781C989.184 123.741 990.384 129.501 990.704 136.061C991.024 142.621 991.184 149.661 991.184 157.181V217.901H971.984V206.621C966.064 210.941 959.504 214.141 952.304 216.221C945.104 218.301 937.984 219.261 930.944 219.101ZM971.504 189.581V158.141C952.464 155.741 937.344 156.381 926.144 160.061C914.944 163.741 909.344 171.421 909.344 183.101C909.344 188.221 910.784 192.221 913.664 195.101C916.704 197.981 920.544 199.901 925.184 200.861C929.984 201.821 935.184 201.981 940.784 201.341C946.384 200.701 951.904 199.341 957.344 197.261C962.784 195.181 967.504 192.621 971.504 189.581Z" fill="white"/>
<path d="M1034.12 265.901H1015.16V97.9012H1034.12V104.861C1045.16 99.4212 1055.88 96.7812 1066.28 96.9412C1076.68 97.1012 1085.96 99.7412 1094.12 104.861C1102.44 109.821 1109 116.941 1113.8 126.221C1118.76 135.501 1121.24 146.461 1121.24 159.101C1121.24 170.621 1118.92 180.941 1114.28 190.061C1109.8 199.181 1103.4 206.301 1095.08 211.421C1086.76 216.541 1077.08 219.181 1066.04 219.341C1061.56 219.341 1056.44 218.861 1050.68 217.901C1044.92 216.941 1039.4 214.781 1034.12 211.421V265.901ZM1034.12 192.221C1042.6 197.021 1050.84 199.821 1058.84 200.621C1067 201.261 1074.28 200.061 1080.68 197.021C1087.24 193.981 1092.44 189.261 1096.28 182.861C1100.12 176.461 1102.04 168.541 1102.04 159.101C1102.04 149.181 1100.04 140.861 1096.04 134.141C1092.2 127.421 1087 122.541 1080.44 119.501C1073.88 116.301 1066.52 115.181 1058.36 116.141C1050.36 116.941 1042.28 119.981 1034.12 125.261V192.221Z" fill="white"/>
<path d="M1161.85 265.901H1142.89V97.9012H1161.85V104.861C1172.89 99.4212 1183.61 96.7812 1194.01 96.9412C1204.41 97.1012 1213.69 99.7412 1221.85 104.861C1230.17 109.821 1236.73 116.941 1241.53 126.221C1246.49 135.501 1248.97 146.461 1248.97 159.101C1248.97 170.621 1246.65 180.941 1242.01 190.061C1237.53 199.181 1231.13 206.301 1222.81 211.421C1214.49 216.541 1204.81 219.181 1193.77 219.341C1189.29 219.341 1184.17 218.861 1178.41 217.901C1172.65 216.941 1167.13 214.781 1161.85 211.421V265.901ZM1161.85 192.221C1170.33 197.021 1178.57 199.821 1186.57 200.621C1194.73 201.261 1202.01 200.061 1208.41 197.021C1214.97 193.981 1220.17 189.261 1224.01 182.861C1227.85 176.461 1229.77 168.541 1229.77 159.101C1229.77 149.181 1227.77 140.861 1223.77 134.141C1219.93 127.421 1214.73 122.541 1208.17 119.501C1201.61 116.301 1194.25 115.181 1186.09 116.141C1178.09 116.941 1170.01 119.981 1161.85 125.261V192.221Z" fill="white"/>
<path d="M229.127 48.7411C233.125 46.5602 238 49.4543 238 54.0087V251.901C238 258.529 232.627 263.901 226 263.901H178C174.686 263.901 172 261.215 172 257.901V83.4628C172 81.2671 173.199 79.2466 175.127 78.1952L229.127 48.7411ZM57.127 0.741073C61.1252 -1.43979 66 1.4543 66 6.00865V209.901C65.9999 213.215 63.3137 215.901 60 215.901H6C2.68635 215.901 9.27408e-05 213.215 0 209.901V39.0243C0.000136653 34.6331 2.39889 30.5928 6.25391 28.4901L57.127 0.741073ZM143.127 96.7411C147.125 94.5602 152 97.4543 152 102.009V209.901C152 213.215 149.314 215.901 146 215.901H92C88.6863 215.901 86.0001 213.215 86 209.901V135.024C86.0001 130.633 88.3989 126.593 92.2539 124.49L143.127 96.7411ZM315.127 48.7411C319.125 46.5602 324 49.4543 324 54.0087V155.901C324 162.529 318.627 167.901 312 167.901H264C260.686 167.901 258 165.215 258 161.901V83.4628C258 81.2671 259.199 79.2466 261.127 78.1952L315.127 48.7411Z" fill="url(#paint0_linear_18_168)"/>
<path d="M288.186 187.505C289.153 184.893 292.847 184.893 293.814 187.505L300.245 204.884C300.548 205.705 301.196 206.353 302.017 206.657L319.396 213.088C322.008 214.054 322.008 217.748 319.396 218.715L302.017 225.146C301.196 225.45 300.548 226.097 300.245 226.918L293.814 244.298C292.847 246.91 289.153 246.91 288.186 244.298L281.755 226.918C281.452 226.097 280.804 225.45 279.983 225.146L262.604 218.715C259.992 217.748 259.992 214.054 262.604 213.088L279.983 206.657C280.804 206.353 281.452 205.705 281.755 204.884L288.186 187.505Z" fill="white"/>
<defs>
<linearGradient id="paint0_linear_18_168" x1="1.10856e-05" y1="-0.0988295" x2="324" y2="263.901" gradientUnits="userSpaceOnUse">
<stop stop-color="#F78F4F"/>
<stop offset="1" stop-color="#FF6A00"/>
</linearGradient>
</defs>
</svg>
