<svg width="1427" height="1111" viewBox="0 0 1427 1111" fill="none" xmlns="http://www.w3.org/2000/svg">
<path d="M229.24 899.002C229.24 915.322 226.72 930.082 221.68 943.282C216.64 956.242 209.2 966.922 199.36 975.322C189.52 983.722 177.28 988.762 162.64 990.442C150.64 992.362 139.12 991.522 128.08 987.922C117.04 984.322 108.16 979.642 101.44 973.882V990.802H73V738.802H101.44V818.362C110.32 813.802 118.6 811.042 126.28 810.082C133.96 809.122 141.16 808.642 147.88 808.642C165.16 808.642 179.8 812.602 191.8 820.522C204.04 828.202 213.28 838.882 219.52 852.562C226 866.002 229.24 881.482 229.24 899.002ZM200.44 899.002C200.44 880.282 195.76 865.762 186.4 855.442C177.28 844.882 165.16 838.762 150.04 837.082C134.92 835.402 118.72 838.162 101.44 845.362V949.762C113.68 958.162 125.68 963.082 137.44 964.522C149.2 965.962 159.76 964.282 169.12 959.482C178.72 954.682 186.28 947.242 191.8 937.162C197.56 926.842 200.44 914.122 200.44 899.002Z" fill="white"/>
<path d="M408.478 990.802H380.038V972.082C375.238 979.282 368.398 984.682 359.518 988.282C350.638 991.882 340.918 993.802 330.358 994.042C319.798 994.522 309.478 993.322 299.398 990.442C289.318 987.322 280.798 982.642 273.838 976.402C266.638 970.162 260.998 962.242 256.918 952.642C253.078 943.042 251.158 932.002 251.158 919.522V810.802H279.958V919.522C279.958 936.082 284.638 948.202 293.998 955.882C303.598 963.562 315.838 967.402 330.718 967.402C338.158 967.402 345.598 965.722 353.038 962.362C360.718 959.002 367.078 953.842 372.118 946.882C377.398 939.682 380.038 930.562 380.038 919.522V810.802H408.478V990.802Z" fill="white"/>
<path d="M507.602 990.442C493.202 988.762 480.962 983.722 470.882 975.322C461.042 966.922 453.602 956.242 448.562 943.282C443.522 930.082 441.002 915.322 441.002 899.002C441.002 881.482 444.122 866.002 450.362 852.562C456.842 838.882 466.082 828.202 478.082 820.522C490.322 812.602 505.082 808.642 522.362 808.642C529.322 808.642 536.522 809.122 543.962 810.082C551.642 811.042 559.922 813.802 568.802 818.362V738.802H597.242V990.802H568.802V973.882C562.082 979.642 553.202 984.322 542.162 987.922C531.122 991.522 519.602 992.362 507.602 990.442ZM568.802 949.762V845.362C551.522 838.162 535.322 835.402 520.202 837.082C505.322 838.762 493.202 844.882 483.842 855.442C474.482 865.762 469.802 880.282 469.802 899.002C469.802 914.122 472.562 926.842 478.082 937.162C483.842 947.242 491.522 954.682 501.122 959.482C510.722 964.282 521.282 965.962 532.802 964.522C544.562 963.082 556.562 958.162 568.802 949.762Z" fill="white"/>
<path d="M788.911 990.802H760.471V883.522C760.471 867.202 755.911 855.322 746.791 847.882C737.671 840.202 725.671 836.362 710.791 836.362C702.391 836.362 694.471 838.162 687.031 841.762C679.831 845.122 673.951 849.562 669.391 855.082C664.831 860.602 662.551 866.122 662.551 871.642V990.802H634.111V738.802H662.551V828.442C669.031 821.242 677.191 816.202 687.031 813.322C696.871 810.442 706.111 809.122 714.751 809.362C738.031 810.322 756.151 817.162 769.111 829.882C782.311 842.602 788.911 860.482 788.911 883.522V990.802Z" fill="white"/>
<path d="M876.917 992.602C860.117 992.122 846.077 987.442 834.797 978.562C823.517 969.442 817.877 956.242 817.877 938.962C817.877 920.962 823.157 906.922 833.717 896.842C844.277 886.522 858.677 879.922 876.917 877.042C895.157 874.162 915.557 874.762 938.117 878.842V865.882C938.117 857.482 935.477 850.882 930.197 846.082C924.917 841.042 918.077 837.682 909.677 836.002C901.517 834.322 892.877 834.202 883.757 835.642C874.877 836.842 866.477 839.602 858.557 843.922C850.637 848.002 844.517 853.402 840.197 860.122L822.557 841.402C829.997 832.282 838.997 825.202 849.557 820.162C860.357 815.122 871.517 811.882 883.037 810.442C894.557 809.002 905.717 809.362 916.517 811.522C927.317 813.682 936.797 817.642 944.957 823.402C952.877 828.202 958.277 834.442 961.157 842.122C964.277 849.562 966.077 858.202 966.557 868.042C967.037 877.882 967.277 888.442 967.277 899.722V990.802H938.477V973.882C929.597 980.362 919.757 985.162 908.957 988.282C898.157 991.402 887.477 992.842 876.917 992.602ZM937.757 948.322V901.162C909.197 897.562 886.517 898.522 869.717 904.042C852.917 909.562 844.517 921.082 844.517 938.602C844.517 946.282 846.677 952.282 850.997 956.602C855.557 960.922 861.317 963.802 868.277 965.242C875.477 966.682 883.277 966.922 891.677 965.962C900.077 965.002 908.357 962.962 916.517 959.842C924.677 956.722 931.757 952.882 937.757 948.322Z" fill="white"/>
<path d="M1031.67 1062.8H1003.23V810.802H1031.67V821.242C1048.23 813.082 1064.31 809.122 1079.91 809.362C1095.51 809.602 1109.43 813.562 1121.67 821.242C1134.15 828.682 1143.99 839.362 1151.19 853.282C1158.63 867.202 1162.35 883.642 1162.35 902.602C1162.35 919.882 1158.87 935.362 1151.91 949.042C1145.19 962.722 1135.59 973.402 1123.11 981.082C1110.63 988.762 1096.11 992.722 1079.55 992.962C1072.83 992.962 1065.15 992.242 1056.51 990.802C1047.87 989.362 1039.59 986.122 1031.67 981.082V1062.8ZM1031.67 952.282C1044.39 959.482 1056.75 963.682 1068.75 964.882C1080.99 965.842 1091.91 964.042 1101.51 959.482C1111.35 954.922 1119.15 947.842 1124.91 938.242C1130.67 928.642 1133.55 916.762 1133.55 902.602C1133.55 887.722 1130.55 875.242 1124.55 865.162C1118.79 855.082 1110.99 847.762 1101.15 843.202C1091.31 838.402 1080.27 836.722 1068.03 838.162C1056.03 839.362 1043.91 843.922 1031.67 851.842V952.282Z" fill="white"/>
<path d="M1223.28 1062.8H1194.84V810.802H1223.28V821.242C1239.84 813.082 1255.92 809.122 1271.52 809.362C1287.12 809.602 1301.04 813.562 1313.28 821.242C1325.76 828.682 1335.6 839.362 1342.8 853.282C1350.24 867.202 1353.96 883.642 1353.96 902.602C1353.96 919.882 1350.48 935.362 1343.52 949.042C1336.8 962.722 1327.2 973.402 1314.72 981.082C1302.24 988.762 1287.72 992.722 1271.16 992.962C1264.44 992.962 1256.76 992.242 1248.12 990.802C1239.48 989.362 1231.2 986.122 1223.28 981.082V1062.8ZM1223.28 952.282C1236 959.482 1248.36 963.682 1260.36 964.882C1272.6 965.842 1283.52 964.042 1293.12 959.482C1302.96 954.922 1310.76 947.842 1316.52 938.242C1322.28 928.642 1325.16 916.762 1325.16 902.602C1325.16 887.722 1322.16 875.242 1316.16 865.162C1310.4 855.082 1302.6 847.762 1292.76 843.202C1282.92 838.402 1271.88 836.722 1259.64 838.162C1247.64 839.362 1235.52 843.922 1223.28 851.842V952.282Z" fill="white"/>
<path d="M876.181 153.887C880.179 151.705 885.055 154.6 885.055 159.154V643.901C885.055 650.528 879.682 655.901 873.055 655.901H739.073C735.76 655.9 733.073 653.214 733.073 649.901V235.545C733.073 233.35 734.272 231.33 736.199 230.278L876.181 153.887ZM480.107 43.3009C484.106 41.1189 488.981 44.0126 488.981 48.5675V539.314C488.981 542.627 486.295 545.314 482.981 545.314H343C339.686 545.314 337 542.627 337 539.314V128.52C337 124.129 339.398 120.09 343.252 117.986L480.107 43.3009ZM678.145 264.474C682.143 262.292 687.019 265.187 687.019 269.741V539.314C687.019 542.627 684.332 545.313 681.019 545.314H541.037C537.723 545.314 535.037 542.627 535.037 539.314V349.693C535.037 345.303 537.434 341.262 541.288 339.159L678.145 264.474ZM1074.22 153.887C1078.22 151.705 1083.09 154.6 1083.09 159.154V422.727C1083.09 429.354 1077.72 434.727 1071.09 434.727H937.11C933.797 434.727 931.11 432.04 931.11 428.727V235.545C931.111 233.35 932.31 231.33 934.236 230.278L1074.22 153.887Z" fill="url(#paint0_linear_21_189)"/>
<path d="M1004.13 470.977C1005.09 468.365 1008.79 468.365 1009.75 470.977L1028.86 522.619C1029.17 523.44 1029.81 524.087 1030.64 524.391L1082.28 543.5C1084.89 544.467 1084.89 548.161 1082.28 549.127L1030.64 568.237C1029.81 568.54 1029.17 569.188 1028.86 570.009L1009.75 621.651C1008.79 624.262 1005.09 624.262 1004.13 621.651L985.017 570.009C984.714 569.188 984.066 568.54 983.245 568.237L931.604 549.127C928.992 548.161 928.992 544.467 931.604 543.5L983.245 524.391C984.066 524.087 984.714 523.44 985.017 522.619L1004.13 470.977Z" fill="white"/>
<defs>
<linearGradient id="paint0_linear_21_189" x1="337" y1="42.329" x2="1088.58" y2="649.097" gradientUnits="userSpaceOnUse">
<stop stop-color="#F78F4F"/>
<stop offset="1" stop-color="#FF6A00"/>
</linearGradient>
</defs>
</svg>
