<svg xmlns="http://www.w3.org/2000/svg" width="30" height="30" fill="none"><path stroke="#fff" stroke-linecap="round" stroke-width="2" d="M6.25 11.875S3.036 13.125 2.5 17.5m21.25-5.625s3.214 1.25 3.75 5.625m-16.25-5.625s3 .73 3.75 4.375m3.75-4.375s-3 .73-3.75 4.375m-2.5 5s-2.625.469-3.75 3.75m8.75-3.75s2.625.469 3.75 3.75"/><path stroke="#fff" stroke-linecap="round" stroke-linejoin="round" stroke-width="2" d="M15 22.5a3.125 3.125 0 1 0 0-6.25 3.125 3.125 0 0 0 0 6.25zm6.25-10a3.75 3.75 0 1 0 0-7.5 3.75 3.75 0 0 0 0 7.5zm-12.5 0a3.75 3.75 0 1 0 0-7.5 3.75 3.75 0 0 0 0 7.5z"/></svg>